<?xml version="1.0" encoding="UTF-8" standalone="no"?>
<!-- Created with Inkscape (http://www.inkscape.org/) -->

<svg
   width="1366"
   height="768"
   viewBox="0 0 361.42082 203.2"
   version="1.1"
   id="svg1"
   inkscape:version="1.3-dev (187f4ce90, 2023-01-07)"
   sodipodi:docname="disegn3.svg"
   inkscape:export-filename="Bkg2.png"
   inkscape:export-xdpi="96"
   inkscape:export-ydpi="96"
   xmlns:inkscape="http://www.inkscape.org/namespaces/inkscape"
   xmlns:sodipodi="http://sodipodi.sourceforge.net/DTD/sodipodi-0.dtd"
   xmlns="http://www.w3.org/2000/svg"
   xmlns:svg="http://www.w3.org/2000/svg">
  <sodipodi:namedview
     id="namedview1"
     pagecolor="#ffffff"
     bordercolor="#000000"
     borderopacity="0.25"
     inkscape:showpageshadow="2"
     inkscape:pageopacity="0.0"
     inkscape:pagecheckerboard="0"
     inkscape:deskcolor="#d1d1d1"
     inkscape:document-units="mm"
     inkscape:zoom="0.72693603"
     inkscape:cx="731.83881"
     inkscape:cy="484.91199"
     inkscape:window-width="1920"
     inkscape:window-height="1001"
     inkscape:window-x="-9"
     inkscape:window-y="-9"
     inkscape:window-maximized="1"
     inkscape:current-layer="layer1" />
  <defs
     id="defs1" />
  <g
     inkscape:label="Livello 1"
     inkscape:groupmode="layer"
     id="layer1"
     transform="translate(-0.36397049,-1.4558824)">
    <rect
       style="fill:#000000;stroke-width:0.293024"
       id="rect3"
       width="364.33456"
       height="207.09927"
       x="1.0919117"
       y="1.4558824" />
    <path
       sodipodi:type="star"
       style="fill:#808080;stroke-width:0.264583"
       id="path4"
       inkscape:flatsided="false"
       sodipodi:sides="5"
       sodipodi:cx="39.672794"
       sodipodi:cy="93.540436"
       sodipodi:r1="1.8198529"
       sodipodi:r2="0.90992653"
       sodipodi:arg1="1.5707963"
       sodipodi:arg2="2.1991149"
       inkscape:rounded="0"
       inkscape:randomized="0"
       d="m 39.672794,95.360289 -0.534841,-1.083707 -1.195942,-0.173781 0.865392,-0.843548 -0.204291,-1.191109 1.069682,0.562365 1.069683,-0.562365 -0.204291,1.191109 0.865391,0.843548 -1.195941,0.173781 z"
       inkscape:transform-center-y="0.17377931" />
    <path
       sodipodi:type="star"
       style="fill:#808080;stroke-width:0.264583"
       id="path5"
       inkscape:flatsided="false"
       sodipodi:sides="5"
       sodipodi:cx="132.48529"
       sodipodi:cy="144.86029"
       sodipodi:r1="2.1838236"
       sodipodi:r2="1.0919119"
       sodipodi:arg1="1.5707963"
       sodipodi:arg2="2.1991149"
       inkscape:rounded="0"
       inkscape:randomized="0"
       d="m 132.48529,147.04411 -0.64181,-1.30044 -1.43513,-0.20854 1.03847,-1.01226 -0.24515,-1.42933 1.28362,0.67484 1.28362,-0.67484 -0.24515,1.42933 1.03847,1.01226 -1.43513,0.20854 z"
       inkscape:transform-center-x="1.669106e-06"
       inkscape:transform-center-y="0.20853476" />
    <path
       sodipodi:type="star"
       style="fill:#808080;stroke-width:0.264583"
       id="path6"
       inkscape:flatsided="false"
       sodipodi:sides="5"
       sodipodi:cx="58.599266"
       sodipodi:cy="184.16911"
       sodipodi:r1="2.0589285"
       sodipodi:r2="1.0294642"
       sodipodi:arg1="2.3561945"
       sodipodi:arg2="2.984513"
       inkscape:rounded="0"
       inkscape:randomized="0"
       d="m 57.143384,185.625 0.439092,-1.29484 -0.817729,-1.09578 1.367152,0.0175 0.789454,-1.11632 0.405854,1.30564 1.305639,0.40586 -1.116321,0.78945 0.01747,1.36715 -1.095778,-0.81773 z"
       inkscape:transform-center-x="-0.099529737"
       inkscape:transform-center-y="-0.099532796" />
    <path
       sodipodi:type="star"
       style="fill:#808080;stroke-width:0.264583"
       id="path7"
       inkscape:flatsided="false"
       sodipodi:sides="5"
       sodipodi:cx="156.50735"
       sodipodi:cy="246.40808"
       sodipodi:r1="3.109766"
       sodipodi:r2="1.5548829"
       sodipodi:arg1="1.929567"
       sodipodi:arg2="2.5578855"
       inkscape:rounded="0"
       inkscape:randomized="0"
       d="m 155.41544,249.31985 -0.20552,-2.05484 -1.80924,-0.99561 1.89076,-0.83045 0.3878,-2.02835 1.37407,1.5416 2.04891,-0.25798 -1.04153,1.7832 0.8785,1.86892 -2.01778,-0.43952 z"
       inkscape:transform-center-x="0.25590425"
       inkscape:transform-center-y="-0.042859132" />
    <path
       sodipodi:type="star"
       style="fill:#808080;stroke-width:0.264583"
       id="path8"
       inkscape:flatsided="false"
       sodipodi:sides="5"
       sodipodi:cx="103.36765"
       sodipodi:cy="241.67645"
       sodipodi:r1="5.4108114"
       sodipodi:r2="2.7054055"
       sodipodi:arg1="1.9138203"
       sodipodi:arg2="2.5421388"
       inkscape:rounded="0"
       inkscape:randomized="0"
       d="m 101.5478,246.77204 -0.41385,-3.56922 -3.174855,-1.68253 3.266645,-1.49654 0.61909,-3.5394 2.43275,2.64431 3.55748,-0.50494 -1.76313,3.13081 1.57955,3.22733 -3.52242,-0.70936 z"
       inkscape:transform-center-x="0.47057845"
       inkscape:transform-center-y="-0.048259026" />
    <path
       sodipodi:type="star"
       style="fill:#808080;stroke-width:0.264583"
       id="path9"
       inkscape:flatsided="false"
       sodipodi:sides="5"
       sodipodi:cx="27.661764"
       sodipodi:cy="267.15442"
       sodipodi:r1="1.8558931"
       sodipodi:r2="0.92794645"
       sodipodi:arg1="1.7681919"
       sodipodi:arg2="2.3965104"
       inkscape:rounded="0"
       inkscape:randomized="0"
       d="m 27.297794,268.97427 -0.3181,-1.19067 -1.161186,-0.41297 1.034101,-0.67047 0.03393,-1.23197 0.957209,0.7763 1.182156,-0.34843 -0.442513,1.15025 0.696682,1.01663 -1.230698,-0.0654 z"
       inkscape:transform-center-x="0.11247344"
       inkscape:transform-center-y="0.066808854" />
    <path
       sodipodi:type="star"
       style="fill:#808080;stroke-width:0.264583"
       id="path10"
       inkscape:flatsided="false"
       sodipodi:sides="5"
       sodipodi:cx="176.52574"
       sodipodi:cy="39.308823"
       sodipodi:r1="2.5736606"
       sodipodi:r2="1.2868302"
       sodipodi:arg1="1.7126934"
       sodipodi:arg2="2.3410119"
       inkscape:rounded="0"
       inkscape:randomized="0"
       d="m 176.16177,41.856617 -0.53204,-1.624158 -1.63956,-0.482481 1.38026,-1.007889 -0.0478,-1.708412 1.38509,1.001249 1.61003,-0.573375 -0.52423,1.626694 1.04283,1.354046 -1.70907,0.0041 z"
       inkscape:transform-center-x="0.11247532"
       inkscape:transform-center-y="0.13632392" />
    <path
       sodipodi:type="star"
       style="fill:#808080;stroke-width:0.264583"
       id="path11"
       inkscape:flatsided="false"
       sodipodi:sides="5"
       sodipodi:cx="93.904411"
       sodipodi:cy="21.474264"
       sodipodi:r1="1.8558931"
       sodipodi:r2="0.92794645"
       sodipodi:arg1="1.7681919"
       sodipodi:arg2="2.3965104"
       inkscape:rounded="0"
       inkscape:randomized="0"
       d="m 93.540441,23.294117 -0.3181,-1.190675 -1.161186,-0.412969 1.034101,-0.67047 0.03393,-1.231967 0.95721,0.776302 1.182155,-0.348429 -0.442513,1.150251 0.696682,1.016626 -1.230698,-0.06541 z"
       inkscape:transform-center-x="0.11247428"
       inkscape:transform-center-y="0.066811949" />
    <path
       sodipodi:type="star"
       style="fill:#808080;stroke-width:0.264583"
       id="path12"
       inkscape:flatsided="false"
       sodipodi:sides="5"
       sodipodi:cx="21.838236"
       sodipodi:cy="17.470589"
       sodipodi:r1="3.2958939"
       sodipodi:r2="1.6479468"
       sodipodi:arg1="1.4601391"
       sodipodi:arg2="2.0884576"
       inkscape:rounded="0"
       inkscape:randomized="0"
       d="M 22.202206,20.746324 21.022751,18.90262 18.8353,18.829003 20.224295,17.137538 19.618349,15.0344 l 2.037902,0.798321 1.812955,-1.226194 -0.129502,2.184854 1.726414,1.345309 -2.117939,0.551993 z"
       inkscape:transform-center-x="-0.11247282"
       inkscape:transform-center-y="0.20583639" />
    <path
       sodipodi:type="star"
       style="fill:#cccccc;stroke-width:0.264583"
       id="path1"
       inkscape:flatsided="false"
       sodipodi:sides="5"
       sodipodi:cx="847.39233"
       sodipodi:cy="442.95508"
       sodipodi:r1="5.5025473"
       sodipodi:r2="2.7512734"
       sodipodi:arg1="1.5707963"
       sodipodi:arg2="2.1991149"
       inkscape:rounded="0"
       inkscape:randomized="0"
       d="m 847.39233,448.45763 -1.61715,-3.27673 -3.61608,-0.52544 2.61662,-2.55057 -0.6177,-3.60147 3.23431,1.70038 3.23432,-1.70038 -0.6177,3.60147 2.61662,2.55057 -3.61608,0.52545 z"
       transform="matrix(0.26458333,0,0,0.26458333,0.36397049,1.4558824)"
       inkscape:transform-center-x="2.824641e-06"
       inkscape:transform-center-y="0.13902291" />
    <path
       sodipodi:type="star"
       style="fill:#cccccc;stroke-width:0.264583"
       id="path2"
       inkscape:flatsided="false"
       sodipodi:sides="5"
       sodipodi:cx="1235.3219"
       sodipodi:cy="632.79297"
       sodipodi:r1="18.353285"
       sodipodi:r2="9.1766415"
       sodipodi:arg1="1.7975952"
       sodipodi:arg2="2.4259137"
       inkscape:rounded="0"
       inkscape:randomized="0"
       d="m 1231.195,650.67625 -2.7982,-11.86221 -11.3582,-4.41976 10.4169,-6.32689 0.6936,-12.16804 9.2363,7.95198 11.7868,-3.1005 -4.7087,11.24148 6.5911,10.25182 -12.1463,-1.00436 z"
       transform="matrix(0.26458333,0,0,0.26458333,0.36397049,1.4558824)"
       inkscape:transform-center-x="0.3374234"
       inkscape:transform-center-y="0.13092235" />
    <path
       sodipodi:type="star"
       style="fill:#cccccc;stroke-width:0.264583"
       id="path3"
       inkscape:flatsided="false"
       sodipodi:sides="5"
       sodipodi:cx="843.26538"
       sodipodi:cy="645.17371"
       sodipodi:r1="8.0212727"
       sodipodi:r2="4.0106359"
       sodipodi:arg1="1.0303768"
       sodipodi:arg2="1.6586954"
       inkscape:rounded="0"
       inkscape:randomized="0"
       d="m 847.39229,652.05189 -4.47899,-2.88303 -4.91418,2.05525 1.35785,-5.15068 -3.47323,-4.03855 5.31819,-0.30027 2.76761,-4.55121 1.92897,4.96511 5.1837,1.22575 -4.12601,3.36886 z"
       transform="matrix(0.26458333,0,0,0.26458333,0.36397049,1.4558824)"
       inkscape:transform-center-x="-0.057569386"
       inkscape:transform-center-y="-0.14712647" />
    <path
       sodipodi:type="star"
       style="fill:#cccccc;stroke-width:0.264583"
       id="path13"
       inkscape:flatsided="false"
       sodipodi:sides="5"
       sodipodi:cx="1172.0426"
       sodipodi:cy="166.45206"
       sodipodi:r1="6.8781843"
       sodipodi:r2="3.4390917"
       sodipodi:arg1="2.2142974"
       sodipodi:arg2="2.842616"
       inkscape:rounded="0"
       inkscape:randomized="0"
       d="m 1167.9157,171.9546 0.8404,-4.48958 -3.222,-3.23751 4.5295,-0.58811 2.0834,-4.06473 1.9591,4.12611 4.5096,0.72536 -3.3188,3.13819 0.7037,4.51303 -4.0102,-2.18661 z"
       transform="matrix(0.26458333,0,0,0.26458333,0.36397049,1.4558824)"
       inkscape:transform-center-x="-0.0085339229"
       inkscape:transform-center-y="-0.16564106" />
    <path
       sodipodi:type="star"
       style="fill:#cccccc;stroke-width:0.264583"
       id="path14"
       inkscape:flatsided="false"
       sodipodi:sides="5"
       sodipodi:cx="1020.7226"
       sodipodi:cy="86.665123"
       sodipodi:r1="14.36207"
       sodipodi:r2="7.1810341"
       sodipodi:arg1="1.8622531"
       sodipodi:arg2="2.4905717"
       inkscape:rounded="0"
       inkscape:randomized="0"
       d="m 1016.5957,100.42149 -1.5854,-9.404669 -8.6461,-4.025671 8.4545,-4.413965 1.1568,-9.466935 6.8106,6.67669 9.361,-1.825216 -4.2453,8.540386 4.6286,8.338889 -9.4343,-1.39844 z"
       transform="matrix(0.26458333,0,0,0.26458333,0.36397049,1.4558824)"
       inkscape:transform-center-x="0.33742269"
       inkscape:transform-center-y="0.026655879" />
    <path
       sodipodi:type="star"
       style="fill:#cccccc;stroke-width:0.264583"
       id="path15"
       inkscape:flatsided="false"
       sodipodi:sides="5"
       sodipodi:cx="1180.2964"
       sodipodi:cy="383.80267"
       sodipodi:r1="12.456922"
       sodipodi:r2="6.2284598"
       sodipodi:arg1="3.0309354"
       sodipodi:arg2="3.659254"
       inkscape:rounded="0"
       inkscape:randomized="0"
       d="m 1167.9157,385.17831 6.9683,-4.45779 0.2782,-8.26753 6.393,5.24975 7.9488,-2.29019 -3.0172,7.70231 4.6344,6.85211 -8.2577,-0.48946 -5.0847,6.52503 -2.0862,-8.0048 z"
       transform="matrix(0.26458333,0,0,0.26458333,0.36397049,1.4558824)"
       inkscape:transform-center-x="0.20584054"
       inkscape:transform-center-y="0.11247182" />
    <path
       sodipodi:type="star"
       style="fill:#cccccc;stroke-width:0.264583"
       id="path16"
       inkscape:flatsided="false"
       sodipodi:sides="5"
       sodipodi:cx="1017.9713"
       sodipodi:cy="291.63501"
       sodipodi:r1="9.9198589"
       sodipodi:r2="4.9599285"
       sodipodi:arg1="2.5535901"
       sodipodi:arg2="3.1819086"
       inkscape:rounded="0"
       inkscape:randomized="0"
       d="m 1009.7175,297.13756 3.2979,-5.70246 -2.8279,-5.94956 6.4425,1.37435 4.7845,-4.52801 0.6837,6.55186 5.7849,3.15109 -6.0199,2.67491 -1.2092,6.4755 -4.4043,-4.89867 z"
       transform="matrix(0.26458333,0,0,0.26458333,0.36397049,1.4558824)"
       inkscape:transform-center-x="-0.2193331"
       inkscape:transform-center-y="0.032688606" />
    <path
       sodipodi:type="star"
       style="fill:#cccccc;stroke-width:0.264583"
       id="path17"
       inkscape:flatsided="false"
       sodipodi:sides="5"
       sodipodi:cx="298.51321"
       sodipodi:cy="418.1936"
       sodipodi:r1="9.7272215"
       sodipodi:r2="4.8636098"
       sodipodi:arg1="1.4288993"
       sodipodi:arg2="2.0572178"
       inkscape:rounded="0"
       inkscape:randomized="0"
       d="m 299.88885,427.82306 -3.64921,-5.32997 -6.45949,-0.0155 3.94144,-5.11766 -1.98134,-6.14813 6.08515,2.16709 5.23495,-3.78425 -0.1806,6.45699 5.21672,3.80934 -6.19677,1.82355 z"
       transform="matrix(0.26458333,0,0,0.26458333,0.36397049,1.4558824)"
       inkscape:transform-center-x="-0.1124721"
       inkscape:transform-center-y="0.13632302" />
    <path
       sodipodi:type="star"
       style="fill:#cccccc;stroke-width:0.264583"
       id="path18"
       inkscape:flatsided="false"
       sodipodi:sides="5"
       sodipodi:cx="1339.8702"
       sodipodi:cy="44.020378"
       sodipodi:r1="11.343792"
       sodipodi:r2="5.671895"
       sodipodi:arg1="1.815775"
       sodipodi:arg2="2.4440935"
       inkscape:rounded="0"
       inkscape:randomized="0"
       d="m 1337.119,55.025473 -1.596,-7.36202 -6.9694,-2.85893 6.5085,-3.792833 0.5653,-7.511779 5.6185,5.017921 7.3188,-1.783604 -3.0361,6.894078 3.9579,6.40945 -7.4949,-0.757145 z"
       transform="matrix(0.26458333,0,0,0.26458333,0.36397049,1.4558824)"
       inkscape:transform-center-x="0.22495066"
       inkscape:transform-center-y="0.064112096" />
    <path
       sodipodi:type="star"
       style="fill:#cccccc;stroke-width:0.264583"
       id="path19"
       inkscape:flatsided="false"
       sodipodi:sides="5"
       sodipodi:cx="1403.1497"
       sodipodi:cy="734.59009"
       sodipodi:r1="47.013786"
       sodipodi:r2="23.506889"
       sodipodi:arg1="2.782822"
       sodipodi:arg2="3.4111405"
       inkscape:rounded="0"
       inkscape:randomized="0"
       d="m 1359.1293,751.09773 21.3623,-22.76742 -6.6447,-30.50495 28.2544,13.28123 26.9586,-15.746 -3.9001,30.97568 23.306,20.77339 -30.6648,5.86279 -12.5547,28.58465 -15.0518,-27.35227 z"
       transform="matrix(0.26458333,0,0,0.26458333,0.36397049,1.4558824)"
       inkscape:transform-center-x="-0.17141943"
       inkscape:transform-center-y="1.0236067" />
    <path
       sodipodi:type="star"
       style="fill:#cccccc;stroke-width:0.264583"
       id="path20"
       inkscape:flatsided="false"
       sodipodi:sides="5"
       sodipodi:cx="-34.390923"
       sodipodi:cy="502.10745"
       sodipodi:r1="75.258781"
       sodipodi:r2="37.629383"
       sodipodi:arg1="0.31597027"
       sodipodi:arg2="0.9442888"
       inkscape:rounded="0"
       inkscape:randomized="0"
       d="m 37.142197,525.49328 -49.470291,7.09699 -22.199122,44.77584 -22.036799,-44.85595 -49.444265,-7.27613 35.850805,-34.81949 -8.359113,-49.27273 44.193812,23.33632 44.2780468,-23.1761 -8.5375235,49.24213 z"
       transform="matrix(0.26458333,0,0,0.26458333,0.36397049,1.4558824)"
       inkscape:transform-center-x="0.01114339"
       inkscape:transform-center-y="1.8908447" />
  </g>
</svg>
